<svg xmlns="http://www.w3.org/2000/svg" width="81" height="74" viewBox="0 0 81 74"><g transform="translate(-523 -200)"><text transform="translate(537 221)" fill="#01d277" font-size="16" font-family="Roboto-Bold, Roboto" font-weight="700"><tspan x="0" y="0">THE</tspan><tspan x="0" y="19">MOVIE</tspan><tspan x="0" y="38">DEV</tspan></text><path d="M77.318,70H13.134l1.491-2.233H74.969a3.3,3.3,0,0,0,3.447-3.12V5.353a3.3,3.3,0,0,0-3.447-3.12H6.031a3.3,3.3,0,0,0-3.447,3.12V64.647a2.837,2.837,0,0,0,.177.99V69.9A3.409,3.409,0,0,1,0,66.667V3.334A3.525,3.525,0,0,1,3.682,0H77.318A3.525,3.525,0,0,1,81,3.334V66.667A3.525,3.525,0,0,1,77.318,70Z" transform="translate(523 200)" fill="#01d277"/><path d="M0,0H3V68L0,71Z" transform="translate(523 203)" fill="#01d277"/></g></svg>