<svg xmlns="http://www.w3.org/2000/svg" width="1557.631" height="827.813" viewBox="0 0 1557.631 827.813"><g transform="translate(-0.651 0.016)"><path d="M1555.2,136.325a10.514,10.514,0,0,1,0,14.875L1388.71,317.633a10.52,10.52,0,0,1-14.88-14.874l166.49-166.434A10.525,10.525,0,0,1,1555.2,136.325Z" fill="#805be7" fill-rule="evenodd"/><path d="M283.1,453.206a10.516,10.516,0,0,1,0,14.875L18.612,732.514A10.519,10.519,0,0,1,3.733,717.64l264.49-264.434A10.524,10.524,0,0,1,283.1,453.206Z" fill="#805be7" fill-rule="evenodd"/><path d="M1361.3,87.407a10.514,10.514,0,0,1,0,14.875L1088.81,374.715a10.52,10.52,0,0,1-14.88-14.874L1346.42,87.407A10.525,10.525,0,0,1,1361.3,87.407Z" fill="#805be7" fill-rule="evenodd" opacity="0.2"/><path d="M1311.3,377.407a10.514,10.514,0,0,1,0,14.875L1038.81,664.715a10.52,10.52,0,0,1-14.88-14.874l272.49-272.434A10.525,10.525,0,0,1,1311.3,377.407Z" fill="#805be7" fill-rule="evenodd" opacity="0.2"/><path d="M1531.3,537.407a10.514,10.514,0,0,1,0,14.875L1258.81,824.715a10.52,10.52,0,0,1-14.88-14.874l272.49-272.434A10.525,10.525,0,0,1,1531.3,537.407Z" fill="#805be7" fill-rule="evenodd"/><path d="M1391.3,547.407a10.514,10.514,0,0,1,0,14.875l-89.49,89.433a10.52,10.52,0,0,1-14.88-14.874l89.49-89.434A10.525,10.525,0,0,1,1391.3,547.407Z" fill="#805be7" fill-rule="evenodd" opacity="0.169"/><path d="M361.3,150.407a10.516,10.516,0,0,1,0,14.875L88.811,437.715a10.52,10.52,0,0,1-14.88-14.874l272.49-272.434A10.524,10.524,0,0,1,361.3,150.407Z" fill="#805be7" fill-rule="evenodd" opacity="0.2"/><path d="M388.3,554.407a10.514,10.514,0,0,1,0,14.875L182.811,774.715a10.52,10.52,0,0,1-14.88-14.874l205.49-205.434A10.524,10.524,0,0,1,388.3,554.407Z" fill="#805be7" fill-rule="evenodd" opacity="0.2"/><path d="M1096.88,3.051a10.4,10.4,0,0,1,0,14.809L805.04,294.916a10.629,10.629,0,0,1-14.94,0,10.408,10.408,0,0,1,0-14.809L1081.94,3.051A10.629,10.629,0,0,1,1096.88,3.051Z" fill="#805be7" fill-rule="evenodd" opacity="0.2"/></g></svg>